<?xml version="1.0" standalone="no"?>
<!DOCTYPE svg PUBLIC "-//W3C//DTD SVG 20010904//EN"
 "http://www.w3.org/TR/2001/REC-SVG-20010904/DTD/svg10.dtd">
<svg version="1.0" xmlns="http://www.w3.org/2000/svg"
 width="48.000000pt" height="48.000000pt" viewBox="0 0 48.000000 48.000000"
 preserveAspectRatio="xMidYMid meet">
<metadata>
Created by potrace 1.16, written by Peter Selinger 2001-2019
</metadata>
<g transform="translate(0.000000,48.000000) scale(0.100000,-0.100000)"
fill="#000000" stroke="none">
<path d="M80 270 l0 -110 33 0 c30 0 32 2 33 35 1 38 27 75 54 75 20 0 30 -19
30 -56 0 -13 5 -24 10 -24 6 0 10 11 10 24 0 37 10 56 30 56 27 0 53 -37 54
-75 1 -33 3 -35 34 -35 l32 0 0 64 c0 36 4 68 10 71 13 8 13 45 0 45 -5 0 -10
9 -10 20 0 19 -7 20 -160 20 l-160 0 0 -110z"/>
<path d="M177 211 c-7 -29 7 -70 28 -77 10 -4 15 -20 15 -50 0 -37 3 -44 20
-44 11 0 20 6 20 14 0 15 21 26 51 26 10 0 19 5 19 10 0 6 22 10 49 10 31 0
53 5 61 15 11 13 4 15 -58 15 -50 0 -73 -4 -82 -15 -7 -8 -19 -15 -26 -15 -19
0 -18 26 1 34 21 8 37 54 26 73 -6 12 -10 9 -19 -16 -10 -28 -15 -32 -43 -29
-27 2 -34 9 -44 38 -11 32 -12 33 -18 11z"/>
</g>
</svg>
